# Made in Blockbench 4.12.6
mtllib coal.mtl

o beveled_cuboid
v 0.09375 0.33459708691207957 0.07165291308792038
v 0.12689563036811943 0.30904240492547724 -0.06446741964588636
v -0.09375 0.3125 0.09375
v -0.09375 0.3125 -0.09375
v 0.09375 0 0.09375
v 0.09375 0 -0.09375
v -0.09375 0 0.09375
v -0.09375 0 -0.09375
v -0.18589635306407853 0.09375 0.10363211768802619
v -0.15625 0.25 0.09375
v -0.15625 0.0625 -0.09375
v -0.1875 0.25 -0.09375
v 0.15625 0.0625 0.09375
v 0.15625 0.25 0.09375
v 0.15625 0.0625 -0.09375
v 0.18939563036811943 0.28314563036811935 -0.09375
v 0.09375 0.0625 -0.15625
v 0.09375000000000001 0.21339677455735798 -0.14259241964588631
v -0.09881941941033634 0.057430580589663674 -0.18666651646201798
v -0.09375 0.25 -0.15625
v 0.09375 0.0625 0.15625
v 0.09375 0.27209708691207957 0.13415291308792038
v -0.09375 0.0625 0.15625
v -0.09375 0.2558551734493404 0.18694657055565228
v 0.18939563036811943 0.28314563036811935 5.854691731421724e-18
v 0.15625 0.0625 0
v 0.09375 0 0
v -0.09375 0 0
v -0.18589635306407853 0.09375 0.009882117688026186
v -0.1875 0.25 6.938893903907228e-18
v -0.09375 0.3125 0
v 0.12689563036811943 0.34564563036811935 5.854691731421724e-18
v 0.15625 0.15625 0
v 0.15625 0.15625 0.09375
v 0.09375 0.15625 0.15625
v -0.09375 0.16210517344934033 0.18694657055565228
v -0.18589635306407853 0.1875 0.10363211768802619
v -0.21714635306407853 0.1875 0.009882117688026193
v -0.1875 0.15625 -0.09375
v -0.09881941941033634 0.15118058058966366 -0.18666651646201798
v 0.09375000000000001 0.15625 -0.171875
v 0.15625 0.15625 -0.09375
v -0.005069419410336333 0.15118058058966366 -0.20229151646201798
v -1.6725712064763056e-18 0.21339677455735798 -0.14259241964588631
v -3.586081830144044e-18 0.2758967745573579 -0.06446741964588636
v 0 0.3125 0
v 0 0.33459708691207957 0.07165291308792038
v 0 0.27795226036141996 0.16484948364357266
v 0 0.16210517344934033 0.18694657055565228
v 0 0.0625 0.15625
v 0 0 0.09375
v 0 0 0
v 0 0 -0.09375
v -0.005069419410336335 0.057430580589663674 -0.18666651646201798
vt 0.3061349139307154 0.42029277130648657
vt 0.3061349139307154 0.36135098741609206
vt 0.3228879636006693 0.36135098741609206
vt 0.3228879636006693 0.44113183884855145
vt 0.3228879636006693 0.42029277130648657
vt 0.32112203711030307 0.38099824871289034
vt 0.30436898744034924 0.38099824871289034
vt 0.3061349139307154 0.42029277130648657
vt 0.3061349139307154 0.459587293900083
vt 0.31008364560644186 0.47348000559479286
vt 0.3228879636006693 0.459587293900083
vt 0.3228879636006693 0.459587293900083
vt 0.3228879636006693 0.26311468093210133
vt 0.3228879636006693 0.26311468093210133
vt 0.3061349139307154 0.26311468093210133
vt 0.3061349139307154 0.26311468093210133
vt 0.28948076165777464 0.3650322073424046
vt 0.28948076165777464 0.3650322073424046
vt 0.2934294933335011 0.4378667029275092
vt 0.28948076165777464 0.4239739912327991
vt 0.3508097130505924 0.42029277130648657
vt 0.3483691144154579 0.39727987100001627
vt 0.35903729504705295 0.3581637807671981
vt 0.35624512010206066 0.3581637807671981
vt 0.3061349139307154 0.42029277130648657
vt 0.3228879636006693 0.44113183884855145
vt 0.3228879636006693 0.4804263614421479
vt 0.3100836456064419 0.47348000559479286
vt 0.3061349139307154 0.459587293900083
vt 0.3228879636006693 0.459587293900083
vt 0.3228879636006693 0.42029277130648657
vt 0.3061349139307154 0.42029277130648657
vt 0.28948076165777464 0.4239739912327991
vt 0.2934294933335011 0.4378667029275092
vt 0.31008364560644186 0.47348000559479286
vt 0.3061349139307154 0.459587293900083
vt 0.3396410132706231 0.459587293900083
vt 0.3344082396904964 0.4365743935936126
vt 0.3483691144154579 0.39727987100001627
vt 0.3508097130505924 0.42029277130648657
vt 0.3061349139307154 0.26311468093210133
vt 0.3228879636006693 0.26311468093210133
vt 0.3228879636006693 0.30240920352569756
vt 0.3061349139307154 0.30240920352569756
vt 0.30436898744034924 0.32205646482249584
vt 0.32112203711030307 0.32205646482249584
vt 0.3228879636006693 0.26311468093210133
vt 0.3061349139307154 0.26311468093210133
vt 0.3061349139307154 0.26311468093210133
vt 0.3061349139307154 0.26311468093210133
vt 0.29496621415074625 0.30240920352569756
vt 0.2949662141507462 0.30240920352569756
vt 0.35624512010206066 0.2992219968768036
vt 0.35624512010206066 0.2992219968768036
vt 0.3396410132706231 0.26311468093210133
vt 0.33964101327062307 0.26311468093210133
vt 0.3396410132706231 0.44113183884855145
vt 0.3396410132706231 0.36135098741609206
vt 0.3536018879955847 0.36135098741609206
vt 0.3483691144154579 0.39727987100001627
vt 0.2989149458264727 0.43418548300119664
vt 0.29496621415074625 0.36135098741609206
vt 0.3061349139307154 0.36135098741609206
vt 0.3061349139307154 0.42029277130648657
vt 0.3508097130505924 0.42029277130648657
vt 0.35624512010206066 0.3581637807671981
vt 0.33964101327062307 0.36135098741609206
vt 0.33964101327062307 0.42029277130648657
vt 0.3061349139307154 0.42029277130648657
vt 0.30436898744034924 0.38099824871289034
vt 0.28948076165777464 0.3650322073424046
vt 0.28948076165777464 0.4239739912327991
vt 0.3061349139307154 0.26311468093210133
vt 0.3061349139307154 0.30240920352569756
vt 0.29496621415074625 0.30240920352569756
vt 0.3061349139307154 0.26311468093210133
vt 0.2949662141507462 0.30240920352569756
vt 0.30436898744034924 0.32205646482249584
vt 0.3396410132706231 0.26311468093210133
vt 0.3508097130505924 0.30240920352569756
vt 0.3396410132706231 0.30240920352569756
vt 0.33964101327062307 0.26311468093210133
vt 0.33964101327062307 0.30240920352569756
vt 0.35624512010206066 0.2992219968768036
vt 0.3100836456064419 0.47348000559479286
vt 0.2989149458264727 0.43418548300119664
vt 0.3061349139307154 0.42029277130648657
vt 0.3061349139307154 0.459587293900083
vt 0.3061349139307154 0.42029277130648657
vt 0.28948076165777464 0.4239739912327991
vt 0.3344082396904964 0.4574134611356775
vt 0.3396410132706231 0.44113183884855145
vt 0.3483691144154579 0.39727987100001627
vt 0.3396410132706231 0.459587293900083
vt 0.3508097130505924 0.42029277130648657
vt 0.33964101327062307 0.42029277130648657
vt 0.3228879636006693 0.44113183884855145
vt 0.3228879636006693 0.36135098741609206
vt 0.3396410132706231 0.36135098741609206
vt 0.3396410132706231 0.44113183884855145
vt 0.3396410132706231 0.30240920352569756
vt 0.3228879636006693 0.30240920352569756
vt 0.3228879636006693 0.26311468093210133
vt 0.3396410132706231 0.26311468093210133
vt 0.33964101327062307 0.26311468093210133
vt 0.3396410132706231 0.26311468093210133
vt 0.3228879636006693 0.26311468093210133
vt 0.3228879636006693 0.26311468093210133
vt 0.33964101327062307 0.26311468093210133
vt 0.3228879636006693 0.26311468093210133
vt 0.32112203711030307 0.32205646482249584
vt 0.33964101327062307 0.30240920352569756
vt 0.33964101327062307 0.42029277130648657
vt 0.33964101327062307 0.36135098741609206
vt 0.32112203711030307 0.38099824871289034
vt 0.3228879636006693 0.42029277130648657
vt 0.33964101327062307 0.42029277130648657
vt 0.3228879636006693 0.42029277130648657
vt 0.3228879636006693 0.459587293900083
vt 0.3396410132706231 0.459587293900083
vt 0.3228879636006693 0.459587293900083
vt 0.3228879636006693 0.459587293900083
vt 0.3344082396904964 0.4365743935936126
vt 0.3396410132706231 0.459587293900083
vt 0.3344082396904964 0.4574134611356775
vt 0.3228879636006693 0.4804263614421479
vt 0.3228879636006693 0.44113183884855145
vt 0.3396410132706231 0.44113183884855145
vt 0.3228879636006693 0.30240920352569756
vt 0.3228879636006693 0.36135098741609206
vt 0.3061349139307154 0.36135098741609206
vt 0.3061349139307154 0.30240920352569756
vt 0.3061349139307154 0.30240920352569756
vt 0.3061349139307154 0.36135098741609206
vt 0.29496621415074625 0.36135098741609206
vt 0.29496621415074625 0.30240920352569756
vt 0.2949662141507462 0.30240920352569756
vt 0.29496621415074625 0.30240920352569756
vt 0.28948076165777464 0.3650322073424046
vt 0.28948076165777464 0.3650322073424046
vt 0.2949662141507462 0.30240920352569756
vt 0.28948076165777464 0.3650322073424046
vt 0.30436898744034924 0.38099824871289034
vt 0.30436898744034924 0.32205646482249584
vt 0.30436898744034924 0.32205646482249584
vt 0.30436898744034924 0.38099824871289034
vt 0.32112203711030307 0.38099824871289034
vt 0.32112203711030307 0.32205646482249584
vt 0.32112203711030307 0.32205646482249584
vt 0.32112203711030307 0.38099824871289034
vt 0.33964101327062307 0.36135098741609206
vt 0.33964101327062307 0.30240920352569756
vt 0.33964101327062307 0.30240920352569756
vt 0.33964101327062307 0.36135098741609206
vt 0.35624512010206066 0.3581637807671981
vt 0.35624512010206066 0.2992219968768036
vt 0.3530193760736311 0.35866475566893774
vt 0.35415448254705295 0.35866475566893774
vt 0.3530193760736311 0.3089876218768036
vt 0.3530193760736311 0.3089876218768036
vt 0.3508097130505924 0.30240920352569756
vt 0.3536018879955847 0.36135098741609206
vt 0.3396410132706231 0.36135098741609206
vt 0.3396410132706231 0.30240920352569756
vt 0.3396410132706231 0.30240920352569756
vt 0.3396410132706231 0.36135098741609206
vt 0.3228879636006693 0.36135098741609206
vt 0.3228879636006693 0.30240920352569756
vt 0.3536018879955847 0.36135098741609206
vt 0.35903729504705295 0.3581637807671981
vt 0.3483691144154579 0.39727987100001627
vt 0.3483691144154579 0.39727987100001627
vt 0.3483691144154579 0.39727987100001627
vt 0.3483691144154579 0.39727987100001627
vt 0.3344082396904964 0.4365743935936126
vt 0.3344082396904964 0.4574134611356775
vt 0.3344082396904964 0.4574134611356775
vt 0.3344082396904964 0.4365743935936126
vt 0.3228879636006693 0.459587293900083
vt 0.3228879636006693 0.4804263614421479
vt 0.3228879636006693 0.4804263614421479
vt 0.3228879636006693 0.459587293900083
vt 0.31008364560644186 0.47348000559479286
vt 0.3100836456064419 0.47348000559479286
vt 0.3100836456064419 0.47348000559479286
vt 0.31008364560644186 0.47348000559479286
vt 0.2934294933335011 0.4378667029275092
vt 0.2989149458264727 0.43418548300119664
vt 0.2989149458264727 0.43418548300119664
vt 0.2934294933335011 0.4378667029275092
vt 0.28948076165777464 0.3650322073424046
vt 0.29496621415074625 0.36135098741609206
vt 0.29496621415074625 0.36135098741609206
vt 0.28948076165777464 0.3650322073424046
vt 0.29496621415074625 0.30240920352569756
vt 0.29496621415074625 0.30240920352569756
vt 0.29496621415074625 0.30240920352569756
vt 0.29496621415074625 0.30240920352569756
vt 0.3061349139307154 0.26311468093210133
vt 0.3061349139307154 0.26311468093210133
vt 0.3061349139307154 0.26311468093210133
vt 0.3061349139307154 0.26311468093210133
vt 0.3228879636006693 0.26311468093210133
vt 0.3228879636006693 0.26311468093210133
vt 0.3228879636006693 0.26311468093210133
vt 0.3228879636006693 0.26311468093210133
vt 0.3396410132706231 0.26311468093210133
vt 0.3396410132706231 0.26311468093210133
vt 0.3396410132706231 0.26311468093210133
vt 0.3396410132706231 0.26311468093210133
vt 0.35624512010206066 0.2992219968768036
vt 0.3508097130505924 0.30240920352569756
vt 0.3508097130505924 0.31167385362395783
vt 0.3530193760736311 0.3089876218768036
vt 0.35415448254705295 0.35866475566893774
vt 0.35194481952401424 0.36135098741609206
vn 1 0 0
vn -0.8485281374238571 0.4472135954999577 0.28284271247461906
vn -0.2826763371478096 0.9166177921213376 -0.2826763371478096
vn 0 -1 0
vn 0 0.18736555037889135 0.9822902577808736
vn 0.3481621387235637 0.6341176844327268 -0.6904186320263315
vn 0.632455532033676 0.632455532033676 0.4472135954999577
vn -0.5547001962252291 0.8320502943378438 0
vn -0.07875038685561299 0.8518846180571911 0.5177750226571818
vn 0.4472135954999584 0.6984302957695784 -0.5587442366156621
vn 0.7071067811865476 -0.7071067811865476 0
vn -0.7131801475644487 -0.7009807965414967 0
vn 0 -0.7071067811865476 0.7071067811865476
vn 0 -0.8506302743526951 -0.5257643353772283
vn 0.7651157639660537 -0.19985120234377682 -0.612092611172843
vn 0.700761537660006 0.1336657572932124 0.700761537660006
vn -0.694881718535034 0.24387597533401625 -0.6765086148015266
vn -0.5597511064880512 0.38180032282420096 0.7354639435599399
vn 0.5773502691896258 -0.5773502691896258 0.5773502691896258
vn -0.5411876149208144 -0.5946074189985863 0.5946074189985863
vn 0.5773502691896258 -0.5773502691896258 -0.5773502691896258
vn -0.6568769665586713 -0.6568769665586713 -0.3701692877716308
vn 0.5773502691896254 0.577350269189626 0.577350269189626
vn -0.6496492727993451 0.6496492727993451 0.39485648621057784
vn -0.08607751684359896 0.6479793886256972 -0.7567782852396782
vn -0.42640143271122083 0.6396021490668313 -0.6396021490668313
vn 0.9675382212353982 -0.25272473256221206 0
vn 0.7071067811865476 -0.7071067811865476 0
vn 0 -1 0
vn -0.7131801475644487 -0.7009807965414967 0
vn -0.96143278893532 0 -0.27503998320253825
vn -0.5547001962252291 0.8320502943378438 0
vn 0 0.8696071002300725 -0.4937443581747995
vn 0.6561967111963116 0.6561967111963116 -0.3725744924579364
vn 1 0 0
vn 0.7071067811865476 0 0.7071067811865476
vn 0 -0.2945137485063687 0.9556472424177908
vn -0.6869204465877459 -0.2140327478931815 0.694500023678175
vn -0.948683298050514 0 0.316227766016838
vn -0.9343172777968506 -0.3114390925989502 -0.17336930527468006
vn -0.7093039669269696 -0.23643465564232322 -0.6640681712843649
vn -0.16222142113076254 -0.16222142113076257 -0.9733285267845753
vn 0.7766705596177468 -0.10355607461569966 -0.6213364476941972
vn 1 0 0
vn 0.18604224458299803 0.6723382879088026 -0.7164841309075729
vn 0 0.7808688094430306 -0.624695047554424
vn -0.2215024279281706 0.8480059032773481 -0.4814796594132454
vn -0.24217412128871746 0.9271459748533016 -0.2859231300391049
vn 0 0.8545385020516763 0.5193880519527546
vn 0.31622776601683783 0.17775056827449634 0.9318823613944486
vn 0.28251601852739144 -0.28251601852739144 0.9167166402716063
vn 0 -0.7071067811865476 0.7071067811865476
vn 0 -1 0
vn 0 -1 0
vn 0 -0.8506302743526951 -0.5257643353772283
vn 0.2978789902000406 -0.15693587149562718 -0.9416152289737632
usemtl m_287cd4eb-4bb4-0f56-f1ae-05009470700c
f 14/1/1 34/2/1 33/3/1 25/4/1
f 30/5/2 38/6/2 37/7/2 10/8/2
f 3/9/3 47/10/3 46/11/3 31/12/3
f 28/13/4 52/14/4 51/15/4 7/16/4
f 36/17/5 49/18/5 48/19/5 24/20/5
f 20/21/6 44/22/6 43/23/6 40/24/6
f 14/25/7 25/26/7 32/27/7 1/28/7
f 3/29/8 31/30/8 30/31/8 10/32/8
f 24/33/9 48/34/9 47/35/9 3/36/9
f 4/37/10 45/38/10 44/39/10 20/40/10
f 5/41/11 27/42/11 26/43/11 13/44/11
f 9/45/12 29/46/12 28/47/12 7/48/12
f 7/49/13 51/50/13 50/51/13 23/52/13
f 19/53/14 54/54/14 53/55/14 8/56/14
f 16/57/15 42/58/15 41/59/15 18/60/15
f 22/61/16 35/62/16 34/63/16 14/64/16
f 20/65/17 40/66/17 39/67/17 12/68/17
f 10/69/18 37/70/18 36/71/18 24/72/18
f 5/73/19 13/74/19 21/75/19
f 7/76/20 23/77/20 9/78/20
f 6/79/21 17/80/21 15/81/21
f 8/82/22 11/83/22 19/84/22
f 1/85/23 22/86/23 14/87/23
f 3/88/24 10/89/24 24/90/24
f 2/91/25 16/92/25 18/93/25
f 4/94/26 20/95/26 12/96/26
f 25/97/27 33/98/27 42/99/27 16/100/27
f 15/101/28 26/102/28 27/103/28 6/104/28
f 8/105/29 53/106/29 52/107/29 28/108/29
f 8/109/30 28/110/30 29/111/30 11/112/30
f 12/113/31 39/114/31 38/115/31 30/116/31
f 12/117/32 30/118/32 31/119/32 4/120/32
f 31/121/33 46/122/33 45/123/33 4/124/33
f 2/125/34 32/126/34 25/127/34 16/128/34
f 26/129/35 33/130/35 34/131/35 13/132/35
f 13/133/36 34/134/36 35/135/36 21/136/36
f 23/137/37 50/138/37 49/139/37 36/140/37
f 23/141/38 36/142/38 37/143/38 9/144/38
f 9/145/39 37/146/39 38/147/39 29/148/39
f 29/149/40 38/150/40 39/151/40 11/152/40
f 11/153/41 39/154/41 40/155/41 19/156/41
f 40/157/42 43/158/42 54/159/42 19/160/42
f 17/161/43 41/162/43 42/163/43 15/164/43
f 15/165/44 42/166/44 33/167/44 26/168/44
f 41/169/45 43/170/45 44/171/45 18/172/45
f 18/173/46 44/174/46 45/175/46 2/176/46
f 2/177/47 45/178/47 46/179/47 32/180/47
f 32/181/48 46/182/48 47/183/48 1/184/48
f 1/185/49 47/186/49 48/187/49 22/188/49
f 22/189/50 48/190/50 49/191/50 35/192/50
f 35/193/51 49/194/51 50/195/51 21/196/51
f 21/197/52 50/198/52 51/199/52 5/200/52
f 5/201/53 51/202/53 52/203/53 27/204/53
f 27/205/54 52/206/54 53/207/54 6/208/54
f 6/209/55 53/210/55 54/211/55 17/212/55
f 17/213/56 54/214/56 43/215/56 41/216/56