# Blender 4.4.0
# www.blender.org
mtllib cube.mtl
o Cube
v 4.000000 4.000000 -4.000000
v 4.000000 -4.000000 -4.000000
v 4.000000 4.000000 4.000000
v 4.000000 -4.000000 4.000000
v -4.000000 4.000000 -4.000000
v -4.000000 -4.000000 -4.000000
v -4.000000 4.000000 4.000000
v -4.000000 -4.000000 4.000000
vn 0.5774 0.5774 -0.5774
vn -0.5774 0.5774 -0.5774
vn -0.5774 0.5774 0.5774
vn 0.5774 0.5774 0.5774
vn 0.5774 -0.5774 0.5774
vn -0.5774 -0.5774 0.5774
vn -0.5774 -0.5774 -0.5774
vn 0.5774 -0.5774 -0.5774
vt 0.000000 0.000000
vt 1.000000 0.000000
vt 1.000000 1.000000
vt 0.000000 1.000000
s 1
usemtl Material.001
f 1/1/1 5/2/2 7/3/3 3/4/4
f 4/2/5 3/3/4 7/4/3 8/1/6
f 8/2/6 7/3/3 5/4/2 6/1/7
f 6/1/7 2/2/8 4/3/5 8/4/6
f 2/2/8 1/3/1 3/4/4 4/1/5
f 6/2/7 5/3/2 1/4/1 2/1/8
