# Made in Blockbench 4.12.6
mtllib doorframe.mtl

o cuboid
v 0 1.6875 -0.0625
v 0 1.53125 -0.0625
v 0 1.53125 0.0625
v 0 1.6875 0.0625
v 3.426071204948282e-16 1.9999999999999982 -1.1912903640062022e-16
v 3.4260712049482783e-16 1.5999999999999988 -1.9406909056281847e-16
v 0.4375 1.6875 0.0625
v 0.4375 1.6875 -0.0625
v 0.4375 0 0.0625
v 0.4375 0 -0.0625
v 0.5625 1.6875 0.0625
v 0.5625 1.6875 -0.0625
v 0.5625 0 0.0625
v 0.5625 0 -0.0625
v 0.5625 1.53125 -0.0625
v 0.4375 1.53125 -0.0625
v 0.4375 1.53125 0.0625
v 0.5625 1.53125 0.0625
v 0.9999999999999977 1.9999999999999982 1.1529239101876624e-16
v 0.9999999999999979 3.9968028886505635e-15 -5.543108707082813e-16
v 0.4999999999999986 1.9999999999999982 -4.7771615723053626e-17
v 0.4999999999999986 3.9968028886505635e-15 -3.3226626578325e-16
v 0.49999999999999867 1.5999999999999988 -1.5532447123361567e-16
v 0.49999999999999867 1.1999999999999986 -1.5532447123361567e-16
v 0.4999999999999988 0.7999999999999992 -2.351217511285488e-16
v 0.4999999999999988 0.39999999999999925 -3.877774170145078e-16
v 0.9999999999999978 1.5999999999999988 -2.2471341027268795e-16
v 0.9999999999999978 1.1999999999999986 -2.2471341027268795e-16
v 0.9999999999999977 0.7999999999999992 -3.2879681883129638e-16
v 0.9999999999999978 0.39999999999999925 -3.9124686396646143e-16
v 0.4999999999999986 1.9374999999999982 -3.955382309660829e-17
v -0.4375 1.6875 0.0625
v -0.4375 1.6875 -0.0625
v -0.4375 0 0.0625
v -0.4375 0 -0.0625
v -0.5625 1.6875 0.0625
v -0.5625 1.6875 -0.0625
v -0.5625 0 0.0625
v -0.5625 0 -0.0625
v -0.5625 1.53125 -0.0625
v -0.4375 1.53125 -0.0625
v -0.4375 1.53125 0.0625
v -0.5625 1.53125 0.0625
v -0.9999999999999977 1.9999999999999982 1.1529239101876624e-16
v -0.9999999999999979 3.9968028886505635e-15 -5.543108707082813e-16
v -0.4999999999999986 1.9999999999999982 -4.7771615723053626e-17
v -0.4999999999999986 3.9968028886505635e-15 -3.3226626578325e-16
v -0.49999999999999867 1.5999999999999988 -1.5532447123361567e-16
v -0.49999999999999867 1.1999999999999986 -1.5532447123361567e-16
v -0.4999999999999988 0.7999999999999992 -2.351217511285488e-16
v -0.4999999999999988 0.39999999999999925 -3.877774170145078e-16
v -0.9999999999999978 1.5999999999999988 -2.2471341027268795e-16
v -0.9999999999999978 1.1999999999999986 -2.2471341027268795e-16
v -0.9999999999999977 0.7999999999999992 -3.2879681883129638e-16
v -0.9999999999999978 0.39999999999999925 -3.9124686396646143e-16
v -0.4999999999999986 1.9374999999999982 -3.955382309660829e-17
vt 0.421875 0.703125
vt 0.453125 0.703125
vt 0.453125 0.75
vt 0.421875 0.75
vt 0.53125 0.859375
vt 0.5625 0.859375
vt 0.5625 0.890625
vt 0.53125 0.890625
vt 0.453125 0.609375
vt 0.453125 0.640625
vt 0.421875 0.640625
vt 0.421875 0.609375
vt 0.296875 0.578125
vt 0.296875 0.9609375
vt 0.265625 0.9609375
vt 0.265625 0.578125
vt 0.34375 0.578125
vt 0.34375 0.9609375
vt 0.3125 0.9609375
vt 0.3125 0.578125
vt 0.40625 0.546875
vt 0.40625 0.9375
vt 0.375 0.9375
vt 0.375 0.546875
vt 0.140625 0.453125
vt 0.140625 0.8359375
vt 0.109375 0.8359375
vt 0.109375 0.453125
vt 0.3125 1
vt 0.3125 0.9609375
vt 0.34375 0.9609375
vt 0.34375 1
vt 0.265625 1
vt 0.265625 0.9609375
vt 0.296875 0.9609375
vt 0.296875 1
vt 0.109375 0.875
vt 0.109375 0.8359375
vt 0.140625 0.8359375
vt 0.140625 0.875
vt 0.453125 0.9609375
vt 0.453125 1
vt 0.34375 1
vt 0.34375 0.9609375
vt 0.421875 0.796875
vt 0.421875 0.765625
vt 0.53125 0.765625
vt 0.53125 0.796875
vt 0.15625 1
vt 0.15625 0.9609375
vt 0.265625 0.9609375
vt 0.265625 1
vt 0.421875 0.890625
vt 0.421875 0.859375
vt 0.53125 0.859375
vt 0.53125 0.890625
vt 0.25000000000000144 0.19988538681948143
vt 1.887379141862766e-15 0.19988538681948143
vt 1.887379141862766e-15 0
vt 0.25000000000000144 0
vt 0.25000000000000144 0.7995415472779339
vt 0.5000000000000004 0.7995415472779339
vt 0.5000000000000004 0.9994269340974178
vt 0.25000000000000144 0.9994269340974178
vt 1.887379141862766e-15 0.7995415472779339
vt 0.25000000000000144 0.7995415472779339
vt 0.25000000000000144 0.9994269340974178
vt 2.1094237467877974e-15 0.9994269340974178
vt 1.887379141862766e-15 0.5996561604584496
vt 0.25000000000000144 0.5996561604584496
vt 0.25000000000000144 0.7995415472779339
vt 1.887379141862766e-15 0.7995415472779339
vt 2.1094237467877974e-15 0.39977077363896574
vt 0.25000000000000144 0.39977077363896574
vt 0.25000000000000144 0.5996561604584496
vt 1.887379141862766e-15 0.5996561604584496
vt 1.887379141862766e-15 0.19988538681948143
vt 0.25000000000000144 0.19988538681948143
vt 0.25000000000000144 0.39977077363896574
vt 2.1094237467877974e-15 0.39977077363896574
vt 0.421875 0.9375
vt 0.421875 0.90625
vt 0.453125 0.90625
vt 0.453125 0.9375
vt 0.453125 0.6875
vt 0.421875 0.6875
vt 0.421875 0.65625
vt 0.453125 0.65625
vt 0.03125 0.9609375
vt 0 0.9609375
vt 0 0.578125
vt 0.03125 0.578125
vt 0.203125 0.8984375
vt 0.171875 0.8984375
vt 0.171875 0.515625
vt 0.203125 0.515625
vt 0.25 0.9375
vt 0.21875 0.9375
vt 0.21875 0.546875
vt 0.25 0.546875
vt 0.09375 0.8359375
vt 0.0625 0.8359375
vt 0.0625 0.453125
vt 0.09375 0.453125
vt 0.171875 0.8984375
vt 0.203125 0.8984375
vt 0.203125 0.9375
vt 0.171875 0.9375
vt 0 0.9609375
vt 0.03125 0.9609375
vt 0.03125 1
vt 0 1
vt 0.0625 0.8359375
vt 0.09375 0.8359375
vt 0.09375 0.875
vt 0.0625 0.875
vt 0.171875 0.9375
vt 0.0625 0.9375
vt 0.0625 0.8984375
vt 0.171875 0.8984375
vt 0.421875 0.8125
vt 0.53125 0.8125
vt 0.53125 0.84375
vt 0.421875 0.84375
vt 0.03125 0.9609375
vt 0.140625 0.9609375
vt 0.140625 1
vt 0.03125 1
vt 0.453125 0.90625
vt 0.5625 0.90625
vt 0.5625 0.9375
vt 0.453125 0.9375
vt 1 0
vt 0.9999999999999996 0.19988538681948143
vt 0.75 0.19988538681948143
vt 0.75 0
vt 0.5000000000000004 0.9994269340974178
vt 0.5000000000000004 0.7995415472779339
vt 0.75 0.7995415472779339
vt 0.75 0.9994269340974178
vt 0.75 0.9994269340974178
vt 0.75 0.7995415472779339
vt 0.9999999999999996 0.7995415472779339
vt 0.9999999999999996 0.9994269340974178
vt 0.75 0.7995415472779339
vt 0.75 0.5996561604584496
vt 0.9999999999999996 0.5996561604584496
vt 0.9999999999999996 0.7995415472779339
vt 0.75 0.5996561604584496
vt 0.75 0.39977077363896574
vt 0.9999999999999996 0.39977077363896574
vt 0.9999999999999996 0.5996561604584496
vt 0.75 0.39977077363896574
vt 0.75 0.19988538681948143
vt 0.9999999999999996 0.19988538681948143
vt 0.9999999999999996 0.39977077363896574
vn 1 0 0
vn 0 1 0
vn 0 -1 0
vn 0 0 1
vn 0 0 -1
vn -1 0 0
vn 1 0 0
vn 0 0 -1
vn 0 0 1
vn 1 0 0
vn 0 0 -1
vn 0 -1 0
vn 0 0 1
vn 0 1 0
vn -6.938893903907242e-18 4.0766001685455445e-16 -1
vn 7.748923865840586e-17 1.8735013540549586e-16 -1
vn -1.3877787807814481e-16 2.688821387764054e-16 -1
vn -1.3877787807814484e-16 0 -1
vn -1.873501354054956e-16 1.9949319973733301e-16 -1
vn -6.938893903907242e-18 3.816391647148976e-16 -1
vn 0 1 0
vn 0 -1 0
vn 0 0 1
vn 0 0 -1
vn 1 0 0
vn -1 0 0
vn 0 0 -1
vn 0 0 1
vn -1 0 0
vn 0 0 -1
vn 0 -1 0
vn 0 0 1
vn 0 1 0
vn 6.938893903907239e-18 4.076600168545545e-16 -1
vn -7.748923865840576e-17 1.8735013540549586e-16 -1
vn 1.3877787807814481e-16 2.688821387764054e-16 -1
vn 1.3877787807814484e-16 0 -1
vn 1.8735013540549554e-16 1.9949319973733304e-16 -1
vn 6.93889390390728e-18 3.8163916471489766e-16 -1
usemtl m_9c95bdaa-4607-dea3-a423-544f4f974c4d
f 3/1/1 2/2/1 1/3/1 4/4/1
f 7/5/2 11/6/2 12/7/2 8/8/2
f 14/9/3 13/10/3 9/11/3 10/12/3
f 13/13/4 18/14/4 17/15/4 9/16/4
f 10/17/5 16/18/5 15/19/5 14/20/5
f 9/21/6 17/22/6 16/23/6 10/24/6
f 14/25/7 15/26/7 18/27/7 13/28/7
f 12/29/8 15/30/8 16/31/8 8/32/8
f 7/33/9 17/34/9 18/35/9 11/36/9
f 11/37/10 18/38/10 15/39/10 12/40/10
f 2/41/11 1/42/11 8/43/11 16/44/11
f 3/45/12 2/46/12 16/47/12 17/48/12
f 4/49/13 3/50/13 17/51/13 7/52/13
f 1/53/14 4/54/14 7/55/14 8/56/14
usemtl m_ea4d2c63-6862-a4f9-3d22-ba36e8425380
f 26/57/15 30/58/15 20/59/15 22/60/15
f 23/61/16 6/62/16 5/63/16 21/64/16
f 27/65/17 23/66/17 21/67/17 19/68/17
f 28/69/18 24/70/18 23/71/18 27/72/18
f 29/73/19 25/74/19 24/75/19 28/76/19
f 30/77/20 26/78/20 25/79/20 29/80/20
usemtl m_9c95bdaa-4607-dea3-a423-544f4f974c4d
f 37/81/21 36/82/21 32/83/21 33/84/21
f 34/85/22 38/86/22 39/87/22 35/88/22
f 42/89/23 43/90/23 38/91/23 34/92/23
f 40/93/24 41/94/24 35/95/24 39/96/24
f 41/97/25 42/98/25 34/99/25 35/100/25
f 43/101/26 40/102/26 39/103/26 38/104/26
f 41/105/27 40/106/27 37/107/27 33/108/27
f 43/109/28 42/110/28 32/111/28 36/112/28
f 40/113/29 43/114/29 36/115/29 37/116/29
f 33/117/30 1/118/30 2/119/30 41/120/30
f 41/121/31 2/122/31 3/123/31 42/124/31
f 42/125/32 3/126/32 4/127/32 32/128/32
f 32/129/33 4/130/33 1/131/33 33/132/33
usemtl m_ea4d2c63-6862-a4f9-3d22-ba36e8425380
f 45/133/34 55/134/34 51/135/34 47/136/34
f 5/137/35 6/138/35 48/139/35 46/140/35
f 46/141/36 48/142/36 52/143/36 44/144/36
f 48/145/37 49/146/37 53/147/37 52/148/37
f 49/149/38 50/150/38 54/151/38 53/152/38
f 50/153/39 51/154/39 55/155/39 54/156/39