# Made in Blockbench 4.12.6
mtllib house.mtl

o cuboid
v 0.5 0.5 0.5
v 0.5 0.5 -0.5
v 0.5 0 0.5
v 0.5 0 -0.5
v -0.5 0.5 0.5
v -0.5 0.5 -0.5
v -0.5 0 0.5
v -0.5 0 -0.5
v -0.007752170911825532 0.874996065997627 0.6245548672323308
v 0.000006414473650604474 0.8750039454934 -0.6249624997732789
v 0.000006414473650604474 0.000003947368400360493 -0.6249999997730913
v -0.007752170911825532 -0.000003932127372861248 0.624517367232518
v -0.5624999996875 0.5000062499999732 -3.469446951953614e-18
v -0.5624999996875 0.000006249999973203038 -3.469446951953614e-18
v 0 0 0
v 0.5624999996875 0.000006249999973203038 -3.469446951953614e-18
v 0.5624999996875 0.5000062499999732 -3.469446951953614e-18
v 0.5345854997133627 0.5518786820617231 0.5043238359260774
v 0.5971476833883567 0.5519784256295723 0.0021635559829832453
v 3.7230216625737063e-7 0.9374998647196534 -0.00009163369795098806
v -0.007801484886663011 0.9374521857918272 0.6268959499699547
v 0.00005646365391883015 0.9374498757176386 -0.6275612097434532
v 0.5346683621596499 0.552003410125675 -0.4999993157505383
v -0.5345851024980471 0.5518789510054498 -0.5043237862775249
v -0.5971431480805364 0.5519720767226085 -0.0023780501363737713
v -0.5346675217610799 0.5520021925762041 0.4995699974274111
v 0.5730972483963763 0.5265521991028254 -0.5422095818012884
v 0.6490893427728414 0.5172176217029845 0.002140517678277704
v 0.6144416590719847 0.46524544607338536 -0.000023038304705544645
v 0.5384288862367265 0.4745487889771504 -0.5422102660507502
v 0.574367860011936 0.5286825036447264 0.5465796179673715
v 0.5397823602985733 0.4768038215830033 0.5422557820412941
v -0.00678256303631983 0.9330851647426988 0.6892348697987372
v -0.006733249061482351 0.8706290449484986 0.6868937870611131
v -0.573279169791942 0.5267609090318824 0.5417395153446932
v -0.5386116480308621 0.47475871645567835 0.5421695179172821
v -0.649091206286613 0.5172208366982605 -0.0023542722428169594
v -0.6144480578935766 0.46525500997562513 0.00002377789355680833
v -0.574360309412441 0.5285541070931656 -0.5465154272907012
v -0.5397752069143938 0.4766751560877158 -0.5421916410131763
v -0.0011607149619818537 0.932808988705944 -0.6898767827887337
v -0.0012107641422500794 0.8703630584817054 -0.6872780728185593
v 0.34375 1.1875 0.53125
v 0.34375 1.1875 0.34375
v 0.34375 0.625 0.53125
v 0.34375 0.625 0.34375
v 0.15625 1.1875 0.53125
v 0.15625 1.1875 0.34375
v 0.15625 0.625 0.53125
v 0.15625 0.625 0.34375
vt 0.90819375 0.7812484375
vt 0.782221875 0.78125
vt 0.782221875 0.65625
vt 0.90819375 0.6562484375
vt 0.703125 0.17187343749999995
vt 0.829096875 0.171875
vt 0.829096875 0.296875
vt 0.703125 0.29687343749999995
vt 0.6175626601775923 0.7012134850804445
vt 0.46069547267759225 0.7012353600804444
vt 0.46012672267759225 0.5235400475804445
vt 0.5856673476775923 0.5366634850804445
vt 0.2206094048384146 0.9961020849479326
vt 0.10370408429315289 0.949173490010107
vt 0.17187475883066705 0.8261759618007957
vt 0.3085369623678643 0.9019214674678133
vt 0.46875 0.21875062891980224
vt 0.34375 0.3125
vt 0.34375 0.09375
vt 0.46875 0.09375
vt 0.15625 0.078125
vt 0.28125 0.078125
vt 0.28125 0.296875
vt 0.15625 0.2031249999689968
vt 0.054881095707736485 0.3341306962441437
vt 0.18078345580669813 0.3223078032125548
vt 0.17951470574038425 0.5
vt 0.02301291411257886 0.49838185988146033
vt 0.546874357837213 0.875
vt 0.640625 1
vt 0.4218743578404018 1
vt 0.4218743578404018 0.875
vt 0.30853681722376514 0.9019235630170481
vt 0.1718753782492584 0.8261761395985181
vt 0.24004635711944824 0.7031789544898122
vt 0.34180180366933294 0.7774420379480063
vt 0.703125 0.921875
vt 0.703125 0.796875
vt 0.9218750000026612 0.796875
vt 0.8281249999905305 0.921875
vt 0.95506875 0.29687343749999995
vt 0.829096875 0.296875
vt 0.829096875 0.171875
vt 0.95506875 0.17187343749999995
vt 0.12314118090760526 0.65625
vt 0.24004635711944824 0.7031789544898122
vt 0.1718753042929479 0.826176273033862
vt 0.03625757133066704 0.7487947118007957
vt 0.03625757133066704 0.7487947118007957
vt 0.17187475883066705 0.8261759618007957
vt 0.10370444633066705 0.9491728368007957
vt 0.0019481963306670624 0.8749103368007957
vt 0.65625 0.6562484375
vt 0.782221875 0.65625
vt 0.782221875 0.78125
vt 0.65625 0.7812484375
vt 0.3343005915289815 0.5366704983071291
vt 0.46012672267759225 0.5235400475804445
vt 0.46069547032358793 0.701234624615749
vt 0.30423366501022964 0.702869725900009
vt 0.33627408074038423 0.49997812499999994
vt 0.17951470574038425 0.5
vt 0.18078345574038426 0.32230781249999996
vt 0.30606783074038424 0.3367328125
vt 0.7766773083025666 0.6128772487408546
vt 0.640625 0.593571148181068
vt 0.6429830387402499 0.578125
vt 0.7785039433493515 0.597359444934508
vt 0.296875 0.5317385271586087
vt 0.14731875000000003 0.6329072771586087
vt 0.14745625 0.6172822771586087
vt 0.2886609375 0.5186729021586087
vt 0.9140757458025668 0.6156647487408546
vt 0.7766773083025666 0.6128772487408546
vt 0.7785038708025667 0.5973600612408546
vt 0.9153694958025667 0.6000944362408546
vt 0.7102765625 0.55396974382418
vt 0.5625 0.45173849382417997
vt 0.5710375 0.43865255632418
vt 0.7101765625 0.5383869313241799
vt 0.5047142025299601 0.7698389146622229
vt 0.3674095150299601 0.7732514146622229
vt 0.36718451502996013 0.757627977162223
vt 0.5040048275299601 0.754229539662223
vt 0.8562747398723626 0.4504417180606267
vt 0.7102765625 0.55396974382418
vt 0.7101762890188557 0.5383443152702296
vt 0.8478543919967532 0.4375
vt 0.640625 0.7499549074116949
vt 0.5047142025299601 0.7698389146622229
vt 0.5040048056226133 0.7542290576040849
vt 0.6394342475937398 0.734375
vt 0.14731875 0.6329072771586087
vt 0.0029195561995088992 0.5285758996717599
vt 0.011661069295514359 0.515625
vt 0.14745588958946293 0.6173232329014596
vt 0.46014383823637445 0.5079407449609714
vt 0.5964883805445844 0.5251596584144572
vt 0.5859467893239287 0.536692696620379
vt 0.46012672267759225 0.5235400475804445
vt 0.3777572600861504 0.8220557177302035
vt 0.5123128012275595 0.796875
vt 0.5132534822888288 0.8124708275952015
vt 0.3889555141534973 0.8329283304747985
vt 0.3237873578873943 0.5249611777569043
vt 0.46014383823637445 0.5079407449609714
vt 0.4601266951437851 0.5235651421856297
vt 0.33428177546738114 0.5364601385178882
vt 0.5123128012275595 0.796875
vt 0.6488916063483245 0.8059180974457315
vt 0.63908310492512 0.8180796960853683
vt 0.5132485342729 0.8123887929858717
vt 0.28869237544972737 0.7023719294515058
vt 0.3236593810662398 0.5252299712040867
vt 0.3343005915289815 0.5366704983071291
vt 0.30418748364273634 0.703125
vt 0.6488916063483245 0.8059180974457315
vt 0.6956775438483246 0.9716884099457315
vt 0.6801603563483246 0.9735259099457315
vt 0.6391416063483246 0.8180071599457315
vt 0.3166082299041938 0.325067995957818
vt 0.3518960004971923 0.4996840376496029
vt 0.33627408074038423 0.49997812499999994
vt 0.30602137399415297 0.3364817437292572
vt 0.382411096450704 0.4741157250386081
vt 0.408960240968547 0.30654618839802117
vt 0.4201695738183451 0.31743211042919006
vt 0.397917142154378 0.47365023611677226
vt 0.1809617542436188 0.3067124922767279
vt 0.31705222641819514 0.3253358777195422
vt 0.3064046984231274 0.33677159879177476
vt 0.18078345574038424 0.32230781249999996
vt 0.408960240968547 0.30654618839802117
vt 0.5434779361099116 0.28125
vt 0.5444328263109064 0.29684549412956995
vt 0.42015452359172517 0.31741749443056355
vt 0.04450399702323063 0.32230234121407864
vt 0.1809617542436188 0.3067124922767279
vt 0.18078313016077788 0.3223362901267175
vt 0.05486354700169373 0.3339247409621462
vt 0.5434779361099116 0.28125
vt 0.680051403549296 0.29016343601991157
vt 0.6702670071525041 0.3023463542789616
vt 0.5444279210916924 0.29676538092139393
vt 0.007478999502807726 0.4977088651191729
vt 0.04436551606416697 0.3225740263966974
vt 0.054881095707736485 0.3341306962441437
vt 0.022951559152646517 0.49869808826536466
vt 0.680051403549296 0.29016343601991157
vt 0.7269639035492961 0.4542665610199116
vt 0.711457653549296 0.45620249851991157
vt 0.6703310910492961 0.30226656101991156
vt 0.5961121742517395 0.5249435550355912
vt 0.6331826245502726 0.7007700580323529
vt 0.6175626601775923 0.7012134850804445
vt 0.5856275496832546 0.5364581646287865
vt 0.3511974561516754 0.991178499160593
vt 0.3777572600861504 0.8220557177302035
vt 0.3889680414827473 0.832940493513683
vt 0.3667149907958087 0.9907101760072738
vt 0.046875 0.703125
vt 0 0.703125
vt 0 0.609375
vt 0.046875 0.609375
vt 0.484375 0.390625
vt 0.484375 0.484375
vt 0.4375 0.484375
vt 0.4375 0.390625
vt 0 0.953125
vt 0.046875 0.953125
vt 0.046875 1
vt 0 1
vt 0.265625 0.625
vt 0.265625 0.671875
vt 0.21875 0.671875
vt 0.21875 0.625
vt 0.546875 0.390625
vt 0.546875 0.484375
vt 0.5 0.484375
vt 0.5 0.390625
vt 0.609375 0.421875
vt 0.5625 0.421875
vt 0.5625 0.328125
vt 0.609375 0.328125
vn 0.9922778767899968 0 -0.12403473397857588
vn -0.9922778767899968 0 -0.1240347339785759
vn 0.5423902545800684 0.8401266639003608 -0.0000184450232799006
vn 0.000011111111068273166 -0.9999999998765432 0.000011111111068273166
vn 0.23821396908096068 -0.00004162340118988638 0.9712126971998398
vn 0.2425385532042232 0.000041577504189996995 -0.9701417672077176
vn -0.5409763724697886 0.8383184222613033 -0.06757800919491509
vn -0.2424935643301854 0.00004157798617232286 -0.9701530134621619
vn -0.000011111111068737423 -0.9999999999183264 -0.000006315903477440657
vn -0.2452324542751661 -0.000041548470161591025 0.969464306534234
vn -0.9922778767899968 0 0.12403473397857588
vn -0.000011111111068273166 -0.9999999998765432 -0.000011111111068273166
vn 0.00001111111106874834 -0.9999999999193091 -0.000006158342973810079
vn 0.9922778767899968 0 0.1240347339785759
vn 0.540970705477763 0.8383232133883002 0.0675639379344178
vn -0.54236875407314 0.8401139476538315 -0.006685025253874865
vn 0.8207744116953337 -0.5575455120446505 0.12438797009778559
vn 0.2142606612104871 -0.03641850708324749 0.9760973626639262
vn 0.8279251359571533 -0.546741412407219 -0.1249551808021126
vn 0.1710112420386155 -0.11399271731524917 -0.9786525509574355
vn -0.8207867140483445 -0.5575397904303894 -0.12433242589348396
vn -0.21550722302722167 -0.04042992418313322 -0.9756649312410698
vn -0.8281625324139433 -0.5463776222773602 0.12497325225928435
vn -0.1762343079172792 -0.10939839878181302 0.9782502026868655
vn 0.5077123064856901 0.8596959047587135 -0.05613524012666027
vn -0.555028091881385 -0.8293981050321819 0.06358144848566233
vn 0.5552308086498347 0.829619950975612 0.058732325590546204
vn -0.46673357785335684 -0.8832302189261592 -0.04543289204809193
vn 0.5578738234158029 0.8268557202771805 -0.07131910678309698
vn -0.5920961532883103 -0.8045141690745297 -0.04668079925949124
vn -0.592844150079481 0.8026150792061423 0.06591546364439932
vn 0.5867706302540588 -0.8079747920638085 0.053637327121138785
vn -0.5035365486466968 0.8622187790718412 0.05504290320137984
vn 0.5548926752200054 -0.8295271430017136 -0.06307803112495261
vn -0.5550716058829126 0.8297111237457294 -0.05894882081232587
vn 0.46859999714582806 -0.8822144417768809 0.045953469893325376
vn -0.5621953726856722 0.8236265280081662 0.07467064545075289
vn 0.5978382614089429 -0.8001834248008014 0.04791554935084212
vn 0.5882425103188398 0.8055193054689018 -0.07148005015868407
vn -0.5835071055291808 -0.8110095296162276 -0.04222559257870776
vn 1 0 0
vn -1 0 0
vn 0 1 0
vn 0 -1 0
vn 0 0 1
vn 0 0 -1
usemtl m_c61cb4d7-8d70-1f52-3346-63c94feee310
f 2/1/1 17/2/1 16/3/1 4/4/1
f 8/5/2 14/6/2 13/7/2 6/8/2
f 22/9/3 20/10/3 19/11/3 23/12/3
f 4/13/4 16/14/4 15/15/4 11/16/4
f 1/17/5 9/18/5 12/19/5 3/20/5
f 4/21/6 11/22/6 10/23/6 2/24/6
f 24/25/7 25/26/7 20/27/7 22/28/7
f 6/29/8 10/30/8 11/31/8 8/32/8
f 11/33/9 15/34/9 14/35/9 8/36/9
f 7/37/10 12/38/10 9/39/10 5/40/10
f 5/41/11 13/42/11 14/43/11 7/44/11
f 7/45/12 14/46/12 15/47/12 12/48/12
f 12/49/13 15/50/13 16/51/13 3/52/13
f 3/53/14 16/54/14 17/55/14 1/56/14
f 18/57/15 19/58/15 20/59/15 21/60/15
f 21/61/16 20/62/16 25/63/16 26/64/16
f 28/65/17 31/66/17 32/67/17 29/68/17
f 31/69/18 33/70/18 34/71/18 32/72/18
f 27/73/19 28/74/19 29/75/19 30/76/19
f 41/77/20 27/78/20 30/79/20 42/80/20
f 37/81/21 39/82/21 40/83/21 38/84/21
f 39/85/22 41/86/22 42/87/22 40/88/22
f 35/89/23 37/90/23 38/91/23 36/92/23
f 33/93/24 35/94/24 36/95/24 34/96/24
f 28/97/25 27/98/25 23/99/25 19/100/25
f 30/101/26 29/102/26 17/103/26 2/104/26
f 31/105/27 28/106/27 19/107/27 18/108/27
f 29/109/28 32/110/28 1/111/28 17/112/28
f 33/113/29 31/114/29 18/115/29 21/116/29
f 32/117/30 34/118/30 9/119/30 1/120/30
f 35/121/31 33/122/31 21/123/31 26/124/31
f 34/125/32 36/126/32 5/127/32 9/128/32
f 37/129/33 35/130/33 26/131/33 25/132/33
f 36/133/34 38/134/34 13/135/34 5/136/34
f 39/137/35 37/138/35 25/139/35 24/140/35
f 38/141/36 40/142/36 6/143/36 13/144/36
f 41/145/37 39/146/37 24/147/37 22/148/37
f 40/149/38 42/150/38 10/151/38 6/152/38
f 27/153/39 41/154/39 22/155/39 23/156/39
f 42/157/40 30/158/40 2/159/40 10/160/40
f 44/161/41 43/162/41 45/163/41 46/164/41
f 49/165/42 47/166/42 48/167/42 50/168/42
f 47/169/43 43/170/43 44/171/43 48/172/43
f 46/173/44 45/174/44 49/175/44 50/176/44
f 45/177/45 43/178/45 47/179/45 49/180/45
f 48/181/46 44/182/46 46/183/46 50/184/46