# Made in Blockbench 4.12.6
mtllib materials.mtl

o cylinder
v 0 0 0
v 0.04186706131736292 0 0.15625
v 0.04186706131736292 0.296875 0.15625
v 0.11438293868263706 0 0.11438293868263708
v 0.11438293868263706 0.296875 0.11438293868263708
v 0.15625 0 0.04186706131736292
v 0.15625 0.296875 0.04186706131736292
v 0.15625 0 -0.04186706131736293
v 0.15625 0.296875 -0.04186706131736293
v 0.11438293868263708 0 -0.11438293868263706
v 0.11438293868263708 0.296875 -0.11438293868263706
v 0.04186706131736296 0 -0.15624999999999994
v 0.04186706131736295 0.296875 -0.15624999999999994
v -0.04186706131736285 0 -0.15625000000000003
v -0.04186706131736284 0.296875 -0.15625000000000003
v -0.11438293868263706 0 -0.1143829386826371
v -0.11438293868263706 0.296875 -0.1143829386826371
v -0.15625 0 -0.041867061317362904
v -0.15625 0.296875 -0.041867061317362904
v -0.15625000000000003 0 0.04186706131736284
v -0.15625000000000003 0.296875 0.04186706131736284
v -0.1143829386826371 0 0.11438293868263705
v -0.1143829386826371 0.296875 0.11438293868263705
v -0.04186706131736291 0 0.15625
v -0.04186706131736291 0.296875 0.15625
v 0.1601361141556919 0.10416666666666663 -0.16013611415569184
v 0.21875 0.10416666666666663 -0.05861388584430809
v 0.1601361141556919 0.20833333333333331 -0.16013611415569184
v 0.21875 0.20833333333333331 -0.05861388584430809
v 0.21875 0.10416666666666663 0.058613885844308086
v 0.21875 0.20833333333333331 0.058613885844308086
v 0.1601361141556919 0.10416666666666663 0.1601361141556919
v 0.1601361141556919 0.20833333333333331 0.1601361141556919
v 0.058613885844308086 0.10416666666666663 0.21875
v 0.058613885844308086 0.20833333333333331 0.21875
v -0.058613885844308065 0.10416666666666663 0.21875
v -0.058613885844308065 0.20833333333333331 0.21875
v -0.16013611415569196 0.10416666666666663 0.16013611415569184
v -0.16013611415569196 0.20833333333333331 0.16013611415569184
v -0.21875 0.10416666666666663 0.05861388584430798
v -0.21875 0.20833333333333331 0.05861388584430798
v -0.21875 0.10416666666666663 -0.05861388584430806
v -0.21875 0.20833333333333331 -0.05861388584430806
v -0.16013611415569184 0.10416666666666663 -0.16013611415569196
v -0.16013611415569184 0.20833333333333331 -0.16013611415569196
v -0.058613885844307975 0.10416666666666663 -0.21875
v -0.058613885844307975 0.20833333333333331 -0.21875
v 0.05861388584430814 0.10416666666666663 -0.21874999999999994
v 0.05861388584430814 0.20833333333333331 -0.21874999999999994
v 0.08578720401197781 0.3125 -0.0857872040119778
v 0.031400295988022214 0.3125 -0.11718749999999996
v -0.03140029598802213 0.3125 -0.11718750000000003
v -0.0857872040119778 0.3125 -0.08578720401197783
v -0.1171875 0.3125 -0.03140029598802218
v -0.11718750000000003 0.3125 0.03140029598802213
v -0.08578720401197783 0.3125 0.08578720401197779
v -0.03140029598802219 0.3125 0.1171875
v 0.03140029598802219 0.3125 0.1171875
v 0.0857872040119778 0.3125 0.08578720401197781
v 0.1171875 0.3125 0.03140029598802219
v 0.1171875 0.3125 -0.0314002959880222
v 0.018587227535928525 0.3125 -0.018587227535928542
v 0.006803397464071473 0.3125 -0.025390625000000014
v -0.006803397464071475 0.3125 -0.02539062500000003
v -0.018587227535928542 0.3125 -0.01858722753592855
v -0.02539062500000002 0.3125 -0.006803397464071485
v -0.02539062500000003 0.3125 0.006803397464071455
v -0.01858722753592855 0.3125 0.018587227535928518
v -0.006803397464071487 0.3125 0.025390625000000003
v 0.006803397464071467 0.3125 0.025390625000000003
v 0.01858722753592852 0.3125 0.018587227535928525
v 0.025390625000000003 0.3125 0.006803397464071467
v 0.025390625000000003 0.3125 -0.00680339746407149
v 0.018587227535928525 0.375 -0.018587227535928542
v 0.006803397464071473 0.375 -0.025390625000000014
v -9.868649107779168e-18 0.375 -9.868649107779168e-18
v -0.006803397464071475 0.375 -0.02539062500000003
v -0.018587227535928542 0.375 -0.01858722753592855
v -0.02539062500000002 0.375 -0.006803397464071485
v -0.02539062500000003 0.375 0.006803397464071455
v -0.01858722753592855 0.375 0.018587227535928518
v -0.006803397464071487 0.375 0.025390625000000003
v 0.006803397464071467 0.375 0.025390625000000003
v 0.01858722753592852 0.375 0.018587227535928525
v 0.025390625000000003 0.375 0.006803397464071467
v 0.025390625000000003 0.375 -0.00680339746407149
vt 0.9585796975978405 0.5185546875
vt 0.9467634943664452 0.5185546875
vt 0.93994140625 0.5185546875
vt 0.9467634943664452 0.6935221354166666
vt 0.9494923296130234 0.6351996527777778
vt 0.9660350141369766 0.6351996527777778
vt 0.9585796975978405 0.6935221354166666
vt 0.40401576856293303 0.728515625
vt 0.43312935560001337 0.728515625
vt 0.38720703125 0.728515625
vt 0.9654017857142857 0.5185546875
vt 0.9585796975978405 0.5185546875
vt 0.93994140625 0.5185546875
vt 0.9585796975978405 0.6935221354166666
vt 0.9660350141369766 0.6351996527777778
vt 0.9755859375 0.6351996527777778
vt 0.9654017857142857 0.6935221354166666
vt 0.43312935560001337 0.728515625
vt 0.4499380929129464 0.728515625
vt 0.38720703125 0.728515625
vt 0.9654017857142857 0.5185546875
vt 0.9654017857142857 0.5185546875
vt 0.93994140625 0.5185546875
vt 0.9654017857142857 0.6935221354166666
vt 0.9755859375 0.6351996527777778
vt 0.9755859375 0.6351996527777778
vt 0.9654017857142857 0.6935221354166666
vt 0.4499380929129464 0.728515625
vt 0.4499380929129464 0.728515625
vt 0.38720703125 0.728515625
vt 0.9585796975978405 0.5185546875
vt 0.9654017857142857 0.5185546875
vt 0.93994140625 0.5185546875
vt 0.9654017857142857 0.6935221354166666
vt 0.9755859375 0.6351996527777778
vt 0.9660350141369766 0.6351996527777778
vt 0.9585796975978405 0.6935221354166666
vt 0.4499380929129464 0.728515625
vt 0.43312935560001337 0.728515625
vt 0.38720703125 0.728515625
vt 0.9467634943664452 0.5185546875
vt 0.9585796975978405 0.5185546875
vt 0.93994140625 0.5185546875
vt 0.9585796975978405 0.6935221354166666
vt 0.9660350141369766 0.6351996527777778
vt 0.9494923296130234 0.6351996527777778
vt 0.9467634943664452 0.6935221354166666
vt 0.43312935560001337 0.728515625
vt 0.40401576856293303 0.728515625
vt 0.38720703125 0.728515625
vt 0.9331193181335548 0.5185546875
vt 0.9467634943664452 0.5185546875
vt 0.93994140625 0.5185546875
vt 0.9467634943664452 0.6935221354166666
vt 0.9494923296130234 0.6351996527777778
vt 0.9303904828869766 0.6351996527777778
vt 0.9331193181335548 0.6935221354166666
vt 0.40401576856293303 0.728515625
vt 0.37039829393706697 0.728515625
vt 0.38720703125 0.728515625
vt 0.9213031149021595 0.5185546875
vt 0.9331193181335548 0.5185546875
vt 0.93994140625 0.5185546875
vt 0.9331193181335548 0.6935221354166666
vt 0.9303904828869766 0.6351996527777778
vt 0.9138477983630234 0.6351996527777778
vt 0.9213031149021595 0.6935221354166666
vt 0.37039829393706697 0.728515625
vt 0.34128470689998663 0.728515625
vt 0.38720703125 0.728515625
vt 0.9144810267857143 0.5185546875
vt 0.9213031149021595 0.5185546875
vt 0.93994140625 0.5185546875
vt 0.9213031149021595 0.6935221354166666
vt 0.9138477983630234 0.6351996527777778
vt 0.904296875 0.6351996527777778
vt 0.9144810267857143 0.6935221354166666
vt 0.34128470689998663 0.728515625
vt 0.3244759695870536 0.728515625
vt 0.38720703125 0.728515625
vt 0.9144810267857143 0.5185546875
vt 0.9144810267857143 0.5185546875
vt 0.93994140625 0.5185546875
vt 0.9144810267857143 0.6935221354166666
vt 0.904296875 0.6351996527777778
vt 0.904296875 0.6351996527777778
vt 0.9144810267857143 0.6935221354166666
vt 0.3244759695870536 0.728515625
vt 0.3244759695870536 0.728515625
vt 0.38720703125 0.728515625
vt 0.9213031149021595 0.5185546875
vt 0.9144810267857143 0.5185546875
vt 0.93994140625 0.5185546875
vt 0.9144810267857143 0.6935221354166666
vt 0.904296875 0.6351996527777778
vt 0.9138477983630234 0.6351996527777778
vt 0.9213031149021595 0.6935221354166666
vt 0.3244759695870536 0.728515625
vt 0.34128470689998663 0.728515625
vt 0.38720703125 0.728515625
vt 0.9331193181335548 0.5185546875
vt 0.9213031149021595 0.5185546875
vt 0.93994140625 0.5185546875
vt 0.9213031149021595 0.6935221354166666
vt 0.9138477983630234 0.6351996527777778
vt 0.9303904828869766 0.6351996527777778
vt 0.9331193181335548 0.6935221354166666
vt 0.34128470689998663 0.728515625
vt 0.37039829393706697 0.728515625
vt 0.38720703125 0.728515625
vt 0.9467634943664452 0.5185546875
vt 0.9331193181335548 0.5185546875
vt 0.93994140625 0.5185546875
vt 0.9331193181335548 0.6935221354166666
vt 0.9303904828869766 0.6351996527777778
vt 0.9494923296130234 0.6351996527777778
vt 0.9467634943664452 0.6935221354166666
vt 0.37039829393706697 0.728515625
vt 0.40401576856293303 0.728515625
vt 0.38720703125 0.728515625
vt 0.9585796975978405 0.5185546875
vt 0.9660350141369766 0.5768771701388888
vt 0.9755859375 0.5768771701388888
vt 0.9654017857142857 0.5185546875
vt 0.9660350141369766 0.5768771701388888
vt 0.9660350141369766 0.6351996527777778
vt 0.9755859375 0.6351996527777778
vt 0.9755859375 0.5768771701388888
vt 0.9654017857142857 0.5185546875
vt 0.9755859375 0.5768771701388888
vt 0.9755859375 0.5768771701388888
vt 0.9654017857142857 0.5185546875
vt 0.9755859375 0.5768771701388888
vt 0.9755859375 0.6351996527777778
vt 0.9755859375 0.6351996527777778
vt 0.9755859375 0.5768771701388888
vt 0.9654017857142857 0.5185546875
vt 0.9755859375 0.5768771701388888
vt 0.9660350141369766 0.5768771701388888
vt 0.9585796975978405 0.5185546875
vt 0.9755859375 0.5768771701388888
vt 0.9755859375 0.6351996527777778
vt 0.9660350141369766 0.6351996527777778
vt 0.9660350141369766 0.5768771701388888
vt 0.9585796975978405 0.5185546875
vt 0.9660350141369766 0.5768771701388888
vt 0.9494923296130234 0.5768771701388888
vt 0.9467634943664452 0.5185546875
vt 0.9660350141369766 0.5768771701388888
vt 0.9660350141369766 0.6351996527777778
vt 0.9494923296130234 0.6351996527777778
vt 0.9494923296130234 0.5768771701388888
vt 0.9467634943664452 0.5185546875
vt 0.9494923296130234 0.5768771701388888
vt 0.9303904828869766 0.5768771701388888
vt 0.9331193181335548 0.5185546875
vt 0.9494923296130234 0.5768771701388888
vt 0.9494923296130234 0.6351996527777778
vt 0.9303904828869766 0.6351996527777778
vt 0.9303904828869766 0.5768771701388888
vt 0.9331193181335548 0.5185546875
vt 0.9303904828869766 0.5768771701388888
vt 0.9138477983630234 0.5768771701388888
vt 0.9213031149021595 0.5185546875
vt 0.9303904828869766 0.5768771701388888
vt 0.9303904828869766 0.6351996527777778
vt 0.9138477983630234 0.6351996527777778
vt 0.9138477983630234 0.5768771701388888
vt 0.9213031149021595 0.5185546875
vt 0.9138477983630234 0.5768771701388888
vt 0.904296875 0.5768771701388888
vt 0.9144810267857143 0.5185546875
vt 0.9138477983630234 0.5768771701388888
vt 0.9138477983630234 0.6351996527777778
vt 0.904296875 0.6351996527777778
vt 0.904296875 0.5768771701388888
vt 0.9144810267857143 0.5185546875
vt 0.904296875 0.5768771701388888
vt 0.904296875 0.5768771701388888
vt 0.9144810267857143 0.5185546875
vt 0.904296875 0.5768771701388888
vt 0.904296875 0.6351996527777778
vt 0.904296875 0.6351996527777778
vt 0.904296875 0.5768771701388888
vt 0.9144810267857143 0.5185546875
vt 0.904296875 0.5768771701388888
vt 0.9138477983630234 0.5768771701388888
vt 0.9213031149021595 0.5185546875
vt 0.904296875 0.5768771701388888
vt 0.904296875 0.6351996527777778
vt 0.9138477983630234 0.6351996527777778
vt 0.9138477983630234 0.5768771701388888
vt 0.9213031149021595 0.5185546875
vt 0.9138477983630234 0.5768771701388888
vt 0.9303904828869766 0.5768771701388888
vt 0.9331193181335548 0.5185546875
vt 0.9138477983630234 0.5768771701388888
vt 0.9138477983630234 0.6351996527777778
vt 0.9303904828869766 0.6351996527777778
vt 0.9303904828869766 0.5768771701388888
vt 0.9331193181335548 0.5185546875
vt 0.9303904828869766 0.5768771701388888
vt 0.9494923296130234 0.5768771701388888
vt 0.9467634943664452 0.5185546875
vt 0.9303904828869766 0.5768771701388888
vt 0.9303904828869766 0.6351996527777778
vt 0.9494923296130234 0.6351996527777778
vt 0.9494923296130234 0.5768771701388888
vt 0.9467634943664452 0.5185546875
vt 0.9494923296130234 0.5768771701388888
vt 0.9660350141369766 0.5768771701388888
vt 0.9585796975978405 0.5185546875
vt 0.9494923296130234 0.5768771701388888
vt 0.9494923296130234 0.6351996527777778
vt 0.9660350141369766 0.6351996527777778
vt 0.9660350141369766 0.5768771701388888
vt 0.945057972337334 0.6935221354166666
vt 0.9539201247608803 0.6935221354166666
vt 0.9585796975978405 0.6935221354166666
vt 0.9467634943664452 0.6935221354166666
vt 0.934824840162666 0.6935221354166666
vt 0.945057972337334 0.6935221354166666
vt 0.9467634943664452 0.6935221354166666
vt 0.9331193181335548 0.6935221354166666
vt 0.9259626877391197 0.6935221354166666
vt 0.934824840162666 0.6935221354166666
vt 0.9331193181335548 0.6935221354166666
vt 0.9213031149021595 0.6935221354166666
vt 0.9208461216517857 0.6935221354166666
vt 0.9259626877391197 0.6935221354166666
vt 0.9213031149021595 0.6935221354166666
vt 0.9144810267857143 0.6935221354166666
vt 0.9208461216517857 0.6935221354166666
vt 0.9208461216517857 0.6935221354166666
vt 0.9144810267857143 0.6935221354166666
vt 0.9144810267857143 0.6935221354166666
vt 0.9259626877391197 0.6935221354166666
vt 0.9208461216517857 0.6935221354166666
vt 0.9144810267857143 0.6935221354166666
vt 0.9213031149021595 0.6935221354166666
vt 0.934824840162666 0.6935221354166666
vt 0.9259626877391197 0.6935221354166666
vt 0.9213031149021595 0.6935221354166666
vt 0.9331193181335548 0.6935221354166666
vt 0.9450579723373339 0.6935221354166666
vt 0.934824840162666 0.6935221354166666
vt 0.9331193181335548 0.6935221354166666
vt 0.9467634943664452 0.6935221354166666
vt 0.9539201247608803 0.6935221354166666
vt 0.9450579723373339 0.6935221354166666
vt 0.9467634943664452 0.6935221354166666
vt 0.9585796975978405 0.6935221354166666
vt 0.9590366908482143 0.6935221354166666
vt 0.9539201247608803 0.6935221354166666
vt 0.9585796975978405 0.6935221354166666
vt 0.9654017857142857 0.6935221354166666
vt 0.9590366908482143 0.6935221354166666
vt 0.9590366908482143 0.6935221354166666
vt 0.9654017857142857 0.6935221354166666
vt 0.9654017857142857 0.6935221354166666
vt 0.9539201247608803 0.6935221354166666
vt 0.9590366908482143 0.6935221354166666
vt 0.9654017857142857 0.6935221354166666
vt 0.9585796975978405 0.6935221354166666
vt 0.9410499955689223 0.6935221354166666
vt 0.9429701285940241 0.6935221354166666
vt 0.9539201247608803 0.6935221354166666
vt 0.945057972337334 0.6935221354166666
vt 0.9388328169310777 0.6935221354166666
vt 0.9410499955689223 0.6935221354166666
vt 0.945057972337334 0.6935221354166666
vt 0.934824840162666 0.6935221354166666
vt 0.9369126839059759 0.6935221354166666
vt 0.9388328169310777 0.6935221354166666
vt 0.934824840162666 0.6935221354166666
vt 0.9259626877391197 0.6935221354166666
vt 0.9358040945870536 0.6935221354166666
vt 0.9369126839059759 0.6935221354166666
vt 0.9259626877391197 0.6935221354166666
vt 0.9208461216517857 0.6935221354166666
vt 0.9358040945870536 0.6935221354166666
vt 0.9358040945870536 0.6935221354166666
vt 0.9208461216517857 0.6935221354166666
vt 0.9208461216517857 0.6935221354166666
vt 0.9369126839059759 0.6935221354166666
vt 0.9358040945870536 0.6935221354166666
vt 0.9208461216517857 0.6935221354166666
vt 0.9259626877391197 0.6935221354166666
vt 0.9388328169310777 0.6935221354166666
vt 0.9369126839059759 0.6935221354166666
vt 0.9259626877391197 0.6935221354166666
vt 0.934824840162666 0.6935221354166666
vt 0.9410499955689223 0.6935221354166666
vt 0.9388328169310777 0.6935221354166666
vt 0.934824840162666 0.6935221354166666
vt 0.9450579723373339 0.6935221354166666
vt 0.9429701285940241 0.6935221354166666
vt 0.9410499955689223 0.6935221354166666
vt 0.9450579723373339 0.6935221354166666
vt 0.9539201247608803 0.6935221354166666
vt 0.9440787179129464 0.6935221354166666
vt 0.9429701285940241 0.6935221354166666
vt 0.9539201247608803 0.6935221354166666
vt 0.9590366908482143 0.6935221354166666
vt 0.9440787179129464 0.6935221354166666
vt 0.9440787179129464 0.6935221354166666
vt 0.9590366908482143 0.6935221354166666
vt 0.9590366908482143 0.6935221354166666
vt 0.9429701285940241 0.6935221354166666
vt 0.9440787179129464 0.6935221354166666
vt 0.9590366908482143 0.6935221354166666
vt 0.9539201247608803 0.6935221354166666
vt 0.40401576856293303 0.728515625
vt 0.43312935560001337 0.728515625
vt 0.43312935560001337 0.5089518229166666
vt 0.40401576856293303 0.5089518229166666
vt 0.37039829393706697 0.728515625
vt 0.40401576856293303 0.728515625
vt 0.40401576856293303 0.5089518229166666
vt 0.37039829393706697 0.5089518229166666
vt 0.34128470689998663 0.728515625
vt 0.37039829393706697 0.728515625
vt 0.37039829393706697 0.5089518229166666
vt 0.34128470689998663 0.5089518229166666
vt 0.3244759695870536 0.728515625
vt 0.34128470689998663 0.728515625
vt 0.34128470689998663 0.5089518229166666
vt 0.3244759695870536 0.5089518229166666
vt 0.3244759695870536 0.728515625
vt 0.3244759695870536 0.728515625
vt 0.3244759695870536 0.5089518229166666
vt 0.3244759695870536 0.5089518229166666
vt 0.34128470689998663 0.728515625
vt 0.3244759695870536 0.728515625
vt 0.3244759695870536 0.5089518229166666
vt 0.34128470689998663 0.5089518229166666
vt 0.37039829393706697 0.728515625
vt 0.34128470689998663 0.728515625
vt 0.34128470689998663 0.5089518229166666
vt 0.37039829393706697 0.5089518229166666
vt 0.40401576856293303 0.728515625
vt 0.37039829393706697 0.728515625
vt 0.37039829393706697 0.5089518229166666
vt 0.40401576856293303 0.5089518229166666
vt 0.43312935560001337 0.728515625
vt 0.40401576856293303 0.728515625
vt 0.40401576856293303 0.5089518229166666
vt 0.43312935560001337 0.5089518229166666
vt 0.4499380929129464 0.728515625
vt 0.43312935560001337 0.728515625
vt 0.43312935560001337 0.5089518229166666
vt 0.4499380929129464 0.5089518229166666
vt 0.4499380929129464 0.728515625
vt 0.4499380929129464 0.728515625
vt 0.4499380929129464 0.5089518229166666
vt 0.4499380929129464 0.5089518229166666
vt 0.43312935560001337 0.728515625
vt 0.4499380929129464 0.728515625
vt 0.4499380929129464 0.5089518229166666
vt 0.43312935560001337 0.5089518229166666
vn 0 -1 0
vn 0.40848393163238095 0.5766831975986552 0.7075149236627754
vn 0 1 0
vn 0 -1 0
vn 0.7075149236627754 0.5766831975986553 0.40848393163238095
vn 0 1 0
vn 0 -1 0
vn 0.8169678632647618 0.5766831975986552 0
vn 0 1 0
vn 0 -1 0
vn 0.7075149236627754 0.5766831975986552 -0.40848393163238117
vn 0 1 0
vn 0 -1 0
vn 0.4084839316323813 0.576683197598655 -0.7075149236627754
vn 0 1 0
vn 0 -1 0
vn 4.0961729119260794e-16 0.5766831975986553 -0.8169678632647617
vn 0 1 0
vn 0 -1 0
vn -0.4084839316323805 0.576683197598655 -0.7075149236627757
vn 0 1 0
vn 0 -1 0
vn -0.7075149236627755 0.576683197598655 -0.408483931632381
vn 0 1 0
vn 0 -1 0
vn -0.8169678632647618 0.5766831975986553 0
vn 0 1 0
vn 0 -1 0
vn -0.7075149236627757 0.576683197598655 0.4084839316323805
vn 0 1 0
vn 0 -1 0
vn -0.40848393163238095 0.5766831975986552 0.7075149236627755
vn 0 1 0
vn 0 -1 0
vn 0 0.5766831975986553 0.8169678632647619
vn 0 1 0
vn 0.7426106572325057 -0.5144957554275266 -0.4287464628562724
vn 0.8660254037844385 0 -0.5000000000000003
vn 0.8574929257125442 -0.5144957554275268 0
vn 1 0 0
vn 0.7426106572325056 -0.5144957554275266 0.42874646285627216
vn 0.8660254037844388 0 0.5000000000000001
vn 0.4287464628562721 -0.5144957554275267 0.7426106572325057
vn 0.5000000000000001 0 0.8660254037844388
vn 0 -0.5144957554275267 0.8574929257125442
vn 0 0 1
vn -0.42874646285627216 -0.5144957554275266 0.7426106572325056
vn -0.5000000000000001 0 0.8660254037844386
vn -0.742610657232506 -0.5144957554275267 0.42874646285627177
vn -0.8660254037844389 0 0.49999999999999956
vn -0.8574929257125442 -0.5144957554275265 0
vn -1 0 0
vn -0.7426106572325056 -0.5144957554275266 -0.42874646285627216
vn -0.8660254037844387 0 -0.5000000000000001
vn -0.42874646285627177 -0.5144957554275267 -0.742610657232506
vn -0.4999999999999995 0 -0.8660254037844389
vn 4.2635324149699316e-16 -0.5144957554275265 -0.8574929257125442
vn 4.735324269295862e-16 0 -1
vn 0.42874646285627227 -0.5144957554275267 -0.7426106572325055
vn 0.5000000000000003 0 -0.8660254037844385
vn 0.18569533817705183 0.9284766908852593 -0.3216337604513386
vn 4.103528993969516e-16 0.9284766908852593 -0.3713906763541038
vn -0.1856953381770518 0.9284766908852593 -0.32163376045133857
vn -0.32163376045133857 0.9284766908852595 -0.18569533817705186
vn -0.3713906763541037 0.9284766908852595 -1.6414115975878069e-16
vn -0.32163376045133857 0.9284766908852595 0.18569533817705183
vn -0.18569533817705192 0.9284766908852593 0.32163376045133846
vn 0 0.9284766908852594 0.3713906763541038
vn 0.1856953381770519 0.9284766908852594 0.3216337604513385
vn 0.32163376045133857 0.9284766908852594 0.18569533817705192
vn 0.3713906763541038 0.9284766908852594 0
vn 0.32163376045133846 0.9284766908852594 -0.1856953381770519
vn 0 1 0
vn 0 1 0
vn 0 1 0
vn 0 1 0
vn 0 1 0
vn 0 1 0
vn 0 1 0
vn 0 1 0
vn 0 1 0
vn 0 1 0
vn 0 1 0
vn 0 1 0
vn 0.4999999999999997 0 -0.8660254037844388
vn 1.2748949955796546e-15 0 -1
vn -0.49999999999999983 0 -0.8660254037844387
vn -0.8660254037844388 0 -0.4999999999999997
vn -1 0 -7.649369973477932e-16
vn -0.8660254037844387 0 0.49999999999999994
vn -0.5000000000000002 0 0.8660254037844386
vn 0 0 1
vn 0.5000000000000001 0 0.8660254037844386
vn 0.8660254037844387 0 0.5000000000000002
vn 1 0 0
vn 0.8660254037844386 0 -0.5000000000000001
usemtl m_03cfaa2b-32e5-da5d-2891-362ac8d61cb1
f 4/1/1 2/2/1 1/3/1
f 3/4/2 35/5/2 33/6/2 5/7/2
f 83/8/3 84/9/3 76/10/3
f 6/11/4 4/12/4 1/13/4
f 5/14/5 33/15/5 31/16/5 7/17/5
f 84/18/6 85/19/6 76/20/6
f 8/21/7 6/22/7 1/23/7
f 7/24/8 31/25/8 29/26/8 9/27/8
f 85/28/9 86/29/9 76/30/9
f 10/31/10 8/32/10 1/33/10
f 9/34/11 29/35/11 28/36/11 11/37/11
f 86/38/12 74/39/12 76/40/12
f 12/41/13 10/42/13 1/43/13
f 11/44/14 28/45/14 49/46/14 13/47/14
f 74/48/15 75/49/15 76/50/15
f 14/51/16 12/52/16 1/53/16
f 13/54/17 49/55/17 47/56/17 15/57/17
f 75/58/18 77/59/18 76/60/18
f 16/61/19 14/62/19 1/63/19
f 15/64/20 47/65/20 45/66/20 17/67/20
f 77/68/21 78/69/21 76/70/21
f 18/71/22 16/72/22 1/73/22
f 17/74/23 45/75/23 43/76/23 19/77/23
f 78/78/24 79/79/24 76/80/24
f 20/81/25 18/82/25 1/83/25
f 19/84/26 43/85/26 41/86/26 21/87/26
f 79/88/27 80/89/27 76/90/27
f 22/91/28 20/92/28 1/93/28
f 21/94/29 41/95/29 39/96/29 23/97/29
f 80/98/30 81/99/30 76/100/30
f 24/101/31 22/102/31 1/103/31
f 23/104/32 39/105/32 37/106/32 25/107/32
f 81/108/33 82/109/33 76/110/33
f 2/111/34 24/112/34 1/113/34
f 25/114/35 37/115/35 35/116/35 3/117/35
f 82/118/36 83/119/36 76/120/36
f 10/121/37 26/122/37 27/123/37 8/124/37
f 26/125/38 28/126/38 29/127/38 27/128/38
f 8/129/39 27/130/39 30/131/39 6/132/39
f 27/133/40 29/134/40 31/135/40 30/136/40
f 6/137/41 30/138/41 32/139/41 4/140/41
f 30/141/42 31/142/42 33/143/42 32/144/42
f 4/145/43 32/146/43 34/147/43 2/148/43
f 32/149/44 33/150/44 35/151/44 34/152/44
f 2/153/45 34/154/45 36/155/45 24/156/45
f 34/157/46 35/158/46 37/159/46 36/160/46
f 24/161/47 36/162/47 38/163/47 22/164/47
f 36/165/48 37/166/48 39/167/48 38/168/48
f 22/169/49 38/170/49 40/171/49 20/172/49
f 38/173/50 39/174/50 41/175/50 40/176/50
f 20/177/51 40/178/51 42/179/51 18/180/51
f 40/181/52 41/182/52 43/183/52 42/184/52
f 18/185/53 42/186/53 44/187/53 16/188/53
f 42/189/54 43/190/54 45/191/54 44/192/54
f 16/193/55 44/194/55 46/195/55 14/196/55
f 44/197/56 45/198/56 47/199/56 46/200/56
f 14/201/57 46/202/57 48/203/57 12/204/57
f 46/205/58 47/206/58 49/207/58 48/208/58
f 12/209/59 48/210/59 26/211/59 10/212/59
f 48/213/60 49/214/60 28/215/60 26/216/60
f 51/217/61 50/218/61 11/219/61 13/220/61
f 52/221/62 51/222/62 13/223/62 15/224/62
f 53/225/63 52/226/63 15/227/63 17/228/63
f 54/229/64 53/230/64 17/231/64 19/232/64
f 55/233/65 54/234/65 19/235/65 21/236/65
f 56/237/66 55/238/66 21/239/66 23/240/66
f 57/241/67 56/242/67 23/243/67 25/244/67
f 58/245/68 57/246/68 25/247/68 3/248/68
f 59/249/69 58/250/69 3/251/69 5/252/69
f 60/253/70 59/254/70 5/255/70 7/256/70
f 61/257/71 60/258/71 7/259/71 9/260/71
f 50/261/72 61/262/72 9/263/72 11/264/72
f 63/265/73 62/266/73 50/267/73 51/268/73
f 64/269/74 63/270/74 51/271/74 52/272/74
f 65/273/75 64/274/75 52/275/75 53/276/75
f 66/277/76 65/278/76 53/279/76 54/280/76
f 67/281/77 66/282/77 54/283/77 55/284/77
f 68/285/78 67/286/78 55/287/78 56/288/78
f 69/289/79 68/290/79 56/291/79 57/292/79
f 70/293/80 69/294/80 57/295/80 58/296/80
f 71/297/81 70/298/81 58/299/81 59/300/81
f 72/301/82 71/302/82 59/303/82 60/304/82
f 73/305/83 72/306/83 60/307/83 61/308/83
f 62/309/84 73/310/84 61/311/84 50/312/84
f 75/313/85 74/314/85 62/315/85 63/316/85
f 77/317/86 75/318/86 63/319/86 64/320/86
f 78/321/87 77/322/87 64/323/87 65/324/87
f 79/325/88 78/326/88 65/327/88 66/328/88
f 80/329/89 79/330/89 66/331/89 67/332/89
f 81/333/90 80/334/90 67/335/90 68/336/90
f 82/337/91 81/338/91 68/339/91 69/340/91
f 83/341/92 82/342/92 69/343/92 70/344/92
f 84/345/93 83/346/93 70/347/93 71/348/93
f 85/349/94 84/350/94 71/351/94 72/352/94
f 86/353/95 85/354/95 72/355/95 73/356/95
f 74/357/96 86/358/96 73/359/96 62/360/96